<?xml version="1.0" encoding="UTF-8" standalone="no"?>
<svg
   xmlns:dc="http://purl.org/dc/elements/1.1/"
   xmlns:cc="http://creativecommons.org/ns#"
   xmlns:rdf="http://www.w3.org/1999/02/22-rdf-syntax-ns#"
   xmlns:svg="http://www.w3.org/2000/svg"
   xmlns="http://www.w3.org/2000/svg"
   xmlns:sodipodi="http://sodipodi.sourceforge.net/DTD/sodipodi-0.dtd"
   xmlns:inkscape="http://www.inkscape.org/namespaces/inkscape"
   width="250"
   height="115"
   viewBox="0 0 66.145834 30.427083"
   version="1.1"
   id="svg3097"
   sodipodi:docname="visitXian.svg"
   inkscape:version="1.0.1 (c497b03c, 2020-09-10)">
  <defs
     id="defs3091">
    <clipPath
       clipPathUnits="userSpaceOnUse"
       id="clipPath4810">
      <path
         style="fill:none;stroke:#000000;stroke-width:0.264583px;stroke-linecap:butt;stroke-linejoin:miter;stroke-opacity:1"
         d="m 44.518647,8.7787375 5.810178,-0.03906 -0.146476,-7.86082743 -5.712526,0.03906 -0.56637,7.85106243 z"
         id="path4812" />
    </clipPath>
    <clipPath
       clipPathUnits="userSpaceOnUse"
       id="clipPath4818">
      <path
         style="fill:none;stroke:#000000;stroke-width:0.264583px;stroke-linecap:butt;stroke-linejoin:miter;stroke-opacity:1"
         d="M -58.995461,-68.938516 -59.21642,2.4305246 -10.605926,6.4077469 -18.781327,-68.496601 Z"
         id="path4820" />
    </clipPath>
    <clipPath
       clipPathUnits="userSpaceOnUse"
       id="clipPath4834">
      <path
         style="fill:none;stroke:#000000;stroke-width:0.950603px;stroke-linecap:butt;stroke-linejoin:miter;stroke-opacity:1"
         d="m -38.445117,-52.437029 0.746623,0.04544 v 2.420798 l 1.305958,0.161063 2.226809,-0.212361 5.975001,0.43722 5.157358,15.08613 8.209661,20.769746 3.297892,20.4890679 -41.679821,-1.4033601 1.684032,-11.0865524 -4.350419,-17.8226834 3.789078,-12.209242 11.874058,-3.749329 -4.716914,-6.635542 0.842016,-7.999158 z"
         id="path4836" />
    </clipPath>
    <clipPath
       clipPathUnits="userSpaceOnUse"
       id="clipPath4904">
      <path
         style="fill:none;stroke:#000000;stroke-width:0.264583px;stroke-linecap:butt;stroke-linejoin:miter;stroke-opacity:1"
         d="m 96.087626,-34.841529 c 56.715134,0.31248 56.402654,0.156239 56.402654,0.156239 l 0.15624,64.995859 c 0,0 -57.808817,0.156239 -57.652573,-0.624962 0.156239,-0.781198 1.093679,-64.527136 1.093679,-64.527136 z"
         id="path4906" />
    </clipPath>
    <filter
       inkscape:label="Apparition"
       inkscape:menu="Blurs"
       inkscape:menu-tooltip="Edges are partly feathered out"
       style="color-interpolation-filters:sRGB"
       id="filter5342">
      <feMorphology
         radius="4"
         in="SourceGraphic"
         result="result0"
         id="feMorphology5336" />
      <feGaussianBlur
         in="result0"
         stdDeviation="8"
         result="result91"
         id="feGaussianBlur5338" />
      <feComposite
         operator="in"
         in="SourceGraphic"
         in2="result91"
         id="feComposite5340" />
    </filter>
    <filter
       inkscape:label="Apparition"
       inkscape:menu="Blurs"
       inkscape:menu-tooltip="Edges are partly feathered out"
       style="color-interpolation-filters:sRGB"
       id="filter5350">
      <feMorphology
         radius="4"
         in="SourceGraphic"
         result="result0"
         id="feMorphology5344" />
      <feGaussianBlur
         in="result0"
         stdDeviation="8"
         result="result91"
         id="feGaussianBlur5346" />
      <feComposite
         operator="in"
         in="SourceGraphic"
         in2="result91"
         id="feComposite5348" />
    </filter>
    <clipPath
       clipPathUnits="userSpaceOnUse"
       id="clipPath5843">
      <path
         style="fill:none;stroke:#000000;stroke-width:0.264583px;stroke-linecap:butt;stroke-linejoin:miter;stroke-opacity:1"
         d="m -145.30324,-65.464579 4.6872,0.312483 0.93744,2.890438 4.68721,-1.093679 6.01524,6.796442 -1.64052,8.515081 10.62432,8.593203 0.7812,9.452523 -39.99745,1.328039 0.70308,-17.420765 12.34296,-3.04668 -0.31248,-14.999041 z"
         id="path5845" />
    </clipPath>
    <clipPath
       clipPathUnits="userSpaceOnUse"
       id="clipPath5872">
      <path
         style="fill:none;stroke:#000000;stroke-width:0.264583px;stroke-linecap:butt;stroke-linejoin:miter;stroke-opacity:1"
         d="m -113.25177,-51.031796 7.57459,13.273693 19.320442,0.62801 8.153651,-7.394295 -11.987334,-6.735739 -1.027488,-13.92814 -8.205044,0.701696 -1.773697,-2.54477 -3.96367,-0.825537 z"
         id="path5874" />
    </clipPath>
    <clipPath
       clipPathUnits="userSpaceOnUse"
       id="clipPath996">
      <path
         style="fill:none;stroke:#000000;stroke-width:0.264583px;stroke-linecap:butt;stroke-linejoin:miter;stroke-opacity:1"
         d="m 203.47661,-84.185464 -1.36333,7.839133 -7.15747,2.044991 -10.22495,57.259748 39.53649,-1.022496 -8.86163,-57.25975 -5.11247,-2.044991 -2.72666,-8.520795 z"
         id="path998" />
    </clipPath>
  </defs>
  <sodipodi:namedview
     id="base"
     pagecolor="#ffffff"
     bordercolor="#666666"
     borderopacity="1.0"
     inkscape:pageopacity="0.0"
     inkscape:pageshadow="2"
     inkscape:zoom="0.27726128"
     inkscape:cx="87.305472"
     inkscape:cy="-42.334728"
     inkscape:document-units="px"
     inkscape:current-layer="layer1"
     inkscape:document-rotation="0"
     showgrid="false"
     units="px"
     inkscape:window-width="1280"
     inkscape:window-height="755"
     inkscape:window-x="0"
     inkscape:window-y="23"
     inkscape:window-maximized="0">
    <inkscape:grid
       type="xygrid"
       id="grid5354" />
  </sodipodi:namedview>
  <metadata
     id="metadata3094">
    <rdf:RDF>
      <cc:Work
         rdf:about="">
        <dc:format>image/svg+xml</dc:format>
        <dc:type
           rdf:resource="http://purl.org/dc/dcmitype/StillImage" />
        <dc:title></dc:title>
      </cc:Work>
    </rdf:RDF>
  </metadata>
  <g
     inkscape:label="Layer 1"
     inkscape:groupmode="layer"
     id="layer1">
    <g
       aria-label="Visit Xi'An"
       transform="matrix(0.63534165,0,0,1.5739563,14.168955,5.5774082)"
       id="text5332"
       style="font-style:normal;font-weight:normal;font-size:13.3611px;line-height:1.25;font-family:sans-serif;fill:#fed136;fill-opacity:1;stroke:none;stroke-width:0.334028">
      <path
         d="M 13.967315,1.8251826 C 13.376631,2.2527378 10.478758,7.9864304 10.251619,8.3070968 9.9843973,7.8929027 7.0249578,2.3892074 6.5652652,1.8251826 5.69931,1.7303022 5.2985714,1.9327542 5.4162106,2.4665154 5.8170436,3.081126 9.731846,11.418453 10.012429,11.832647 h 0.02672 c 0.481,-0.921916 4.556135,-8.6713544 5.023774,-9.3661316 0.251028,-0.3692446 -0.03606,-0.6027299 -1.095608,-0.6413328 z"
         style="font-style:normal;font-variant:normal;font-weight:normal;font-stretch:normal;font-family:'Lithos Pro';-inkscape-font-specification:'Lithos Pro';fill:#fed136;fill-opacity:1;stroke:none;stroke-width:0.334028"
         id="path5820"
         sodipodi:nodetypes="cccccccc" />
      <path
         d="m 17.953933,6.7287063 c 0,-1.3628322 0.04008,-3.0864141 0.06681,-3.2868306 h -1.296027 c 0.02672,0.267222 0.06681,3.073053 0.06681,3.2734695 v 1.2292213 c 0,0.2939442 -0.01336,2.9528035 -0.04008,3.4471635 h 1.255943 c -0.01336,-0.267222 -0.05344,-2.2981089 -0.05344,-3.4338024 z"
         style="font-style:normal;font-variant:normal;font-weight:normal;font-stretch:normal;font-family:'Lithos Pro';-inkscape-font-specification:'Lithos Pro';fill:#fed136;fill-opacity:1;stroke:none;stroke-width:0.334028"
         id="path5822" />
      <path
         d="m 21.435334,11.605508 c 2.460053,0.161634 3.760301,-1.566203 3.727747,-2.8459144 C 25.144021,8.0103479 24.123593,7.575377 23.193584,7.0665662 22.672501,6.772622 21.287983,6.2658108 21.373679,5.6521744 21.623922,3.8602697 26.82037,3.6353382 25.698688,4.9530298 c 0.778599,0.2816563 3.180105,-2.2635971 -1.384134,-1.7688014 -1.723581,0.3073053 -4.170096,1.3608805 -4.170096,2.630185 0,0.8283882 1.622284,1.3838371 2.66445,1.891559 0.881833,0.4275552 1.284469,0.7256746 1.078987,1.3076823 -1.0265,2.9074643 -2.49656,1.7691973 -4.421712,0.5848012 -1.900389,1.4681481 2.103956,2.2484711 1.969151,2.0070521 z"
         style="font-style:normal;font-variant:normal;font-weight:normal;font-stretch:normal;font-family:'Lithos Pro';-inkscape-font-specification:'Lithos Pro';fill:#fed136;fill-opacity:1;stroke:none;stroke-width:0.334028"
         id="path5824"
         sodipodi:nodetypes="cscsccscscc" />
      <path
         d="m 29.070784,6.7287063 c 0,-1.3628322 0.04008,-3.0864141 0.06681,-3.2868306 h -1.296027 c 0.02672,0.267222 0.06681,3.073053 0.06681,3.2734695 v 1.2292213 c 0,0.2939442 -0.01336,2.9528035 -0.04008,3.4471635 h 1.255944 c -0.01336,-0.267222 -0.05344,-2.2981089 -0.05344,-3.4338024 z"
         style="font-style:normal;font-variant:normal;font-weight:normal;font-stretch:normal;font-family:'Lithos Pro';-inkscape-font-specification:'Lithos Pro';fill:#fed136;fill-opacity:1;stroke:none;stroke-width:0.334028"
         id="path5826" />
      <path
         d="M 35.665411,11.39173 C 35.638689,11.164592 35.041642,8.9116677 35.180306,6.6008751 l 0.122957,-2.0490544 c -0.05807,-0.5562055 3.127773,-0.1078811 3.154529,-0.054418 V 3.4151535 c -0.387472,0.093528 -3.032969,0.133611 -3.260108,0.133611 h -1.068888 c -0.133611,0 -3.006248,-0.040083 -3.353636,-0.133611 v 1.0822491 c 0.215679,-0.067002 2.963459,-0.5251688 2.912281,0.076133 l 0.0538,1.5310319 c 0.06337,1.8035672 0.07886,5.0180345 0.01205,5.3119785 z"
         style="font-style:normal;font-variant:normal;font-weight:normal;font-stretch:normal;font-family:'Lithos Pro';-inkscape-font-specification:'Lithos Pro';fill:#fed136;fill-opacity:1;stroke:none;stroke-width:0.334028"
         id="path5828"
         sodipodi:nodetypes="cscccsscccscc" />
      <path
         d="m 44.005779,11.63223 c 0.173695,-0.2405 3.246748,-4.0617743 3.407081,-4.2621909 0.334027,0.3741109 3.139858,3.8079139 3.447164,4.2354689 3.76e-4,0.06939 1.724888,0.368158 0.961999,-0.908555 -0.481,-0.601249 -3.206664,-3.6876636 -3.607497,-4.1285799 C 48.521831,6.1274568 51.194051,3.3349869 51.66169,2.8940706 52.217883,2.3844349 51.845426,1.4429075 50.753135,1.9855158 50.379024,2.4665154 48.000748,5.2723464 47.546471,5.7800682 46.57111,4.6042914 44.914334,2.4932376 44.566945,2.012238 44.33188,1.8102344 42.428867,1.7292091 43.591585,2.9074317 c 0.534444,0.6146106 2.618776,3.073053 3.15322,3.6876636 -0.414194,0.4943607 -3.286831,3.8479967 -3.607497,4.1553017 -0.175677,1.001597 0.534127,0.84561 0.868471,0.881833 z"
         style="font-style:normal;font-variant:normal;font-weight:normal;font-stretch:normal;font-family:'Lithos Pro';-inkscape-font-specification:'Lithos Pro';fill:#fed136;fill-opacity:1;stroke:none;stroke-width:0.334028"
         id="path5830"
         sodipodi:nodetypes="ccccccccccccc" />
      <path
         d="m 55.453738,6.7287063 c 0,-1.3628322 0.04008,-3.0864141 0.06681,-3.2868306 h -1.296026 c 0.02672,0.267222 0.06681,3.073053 0.06681,3.2734695 v 1.2292213 c 0,0.2939442 -0.01336,2.9528035 -0.04008,3.4471635 h 1.255943 c -0.01336,-0.267222 -0.05344,-2.2981089 -0.05344,-3.4338024 z"
         style="font-style:normal;font-variant:normal;font-weight:normal;font-stretch:normal;font-family:'Lithos Pro';-inkscape-font-specification:'Lithos Pro';fill:#fed136;fill-opacity:1;stroke:none;stroke-width:0.334028"
         id="path5832" />
      <path
         d="M 58.013224,4.4706804 H 58.57439 L 58.794751,2.3165233 C 58.424613,1.9259884 57.928877,1.7635991 57.097309,2.211236 Z"
         style="font-style:normal;font-variant:normal;font-weight:normal;font-stretch:normal;font-family:'Lithos Pro';-inkscape-font-specification:'Lithos Pro';fill:#fed136;fill-opacity:1;stroke:none;stroke-width:0.334028"
         id="path5834"
         sodipodi:nodetypes="ccccc" />
      <path
         d="m 60.205698,11.645591 c 0.227138,-0.454277 1.322749,-3.0329695 1.483082,-3.2868304 l 4.636302,-0.1870554 c 0.146972,0.2137776 1.563248,2.9528028 1.83047,3.4605248 0.835699,-0.0072 2.064102,0.193623 1.135694,-0.748221 C 68.382691,9.4944541 65.781247,1.3277564 64.040333,1.5713217 v 0 c -1.668299,0.3848866 -4.195383,8.0968267 -4.930244,9.3794923 -0.689885,0.610166 -0.301109,0.833301 1.095609,0.694777 z m 1.937359,-4.168663 c 0.12025,-0.2137777 1.664462,-3.0709638 1.864878,-3.364908 0.133611,0.2137776 1.769341,2.9106305 1.916314,3.2045747 z"
         style="font-style:normal;font-variant:normal;font-weight:normal;font-stretch:normal;font-family:'Lithos Pro';-inkscape-font-specification:'Lithos Pro';fill:#fed136;fill-opacity:1;stroke:none;stroke-width:0.334028"
         id="path5836"
         sodipodi:nodetypes="ccccccccccccc" />
      <path
         d="m 72.12088,11.471897 c -0.01336,-0.374111 0.08017,-5.9323286 0.05344,-6.1461062 l -0.04347,0.5088886 c 0.146972,0.1603332 6.069326,5.4902456 6.416715,5.7975506 h 0.05344 C 78.654453,8.7729547 78.881586,4.1232918 78.935031,3.4418757 78.712182,3.1438178 78.066153,3.0441984 77.745893,3.3884317 77.732533,3.7625425 77.618869,8.6800452 77.618869,9.0007116 77.244765,8.6399615 71.76013,3.3617091 71.412741,2.9875983 71.01933,2.8315729 70.71113,2.881922 70.433018,3.0051462 c -0.05344,1.1757768 0.525446,7.5314738 0.45864,8.3865838 0.493666,0.297741 0.844468,0.134134 1.229222,0.08017 z"
         style="font-style:normal;font-variant:normal;font-weight:normal;font-stretch:normal;font-family:'Lithos Pro';-inkscape-font-specification:'Lithos Pro';fill:#fed136;fill-opacity:1;stroke:none;stroke-width:0.334028"
         id="path5838"
         sodipodi:nodetypes="cccccccccccc" />
    </g>
    <path
       style="fill:none;stroke:#000000;stroke-width:0.264583px;stroke-linecap:butt;stroke-linejoin:miter;stroke-opacity:1"
       d="m -101.59317,-62.980268 1.984386,0.213368"
       id="path5880" />
    <path
       style="fill:none;stroke:#000000;stroke-width:0.264583px;stroke-linecap:butt;stroke-linejoin:miter;stroke-opacity:1"
       d="M -100.19676,-54.127825 Z"
       id="path5886" />
    <path
       style="fill:none;stroke:#ffffff;stroke-width:0.264583px;stroke-linecap:butt;stroke-linejoin:miter;stroke-opacity:1"
       d="m -99.680013,-61.741801 -0.516747,7.613976"
       id="path5892" />
    <path
       style="fill:none;stroke:#000000;stroke-width:0.264583px;stroke-linecap:butt;stroke-linejoin:miter;stroke-opacity:1"
       d="m -99.185837,-62.23598 -1.520983,1.327524 -1.37019,2.242598"
       id="path5890"
       sodipodi:nodetypes="ccc" />
    <path
       style="fill:#ffffff;stroke:#000000;stroke-width:0.264583px;stroke-linecap:butt;stroke-linejoin:miter;stroke-opacity:1"
       d="m -100.13748,-53.624256 c -0.7517,-1.312509 -1.49571,-6.386621 -1.33408,-5.9296"
       id="path5888"
       sodipodi:nodetypes="cc" />
    <path
       style="fill:#fed136;fill-opacity:1;stroke-width:0.09874"
       d="m 4.5810703,24.959174 c -0.046719,-0.283337 -0.092673,-0.683166 -0.1021527,-0.888509 -0.00938,-0.205345 -0.091051,-0.47591 -0.1812763,-0.601264 -0.1527937,-0.21228 -0.1508596,-0.232743 0.028181,-0.298336 0.1057261,-0.03874 0.302908,-0.16562 0.4381875,-0.281977 0.2331194,-0.200514 0.2438438,-0.259701 0.2055012,-1.13395 -0.037082,-0.845497 -0.062574,-0.946473 -0.3058791,-1.211147 L 4.3982071,20.255244 4.7184128,20.102891 C 5.2767435,19.837242 5.3577969,19.653042 5.3479208,18.672298 5.3400559,17.89088 5.3118106,17.750355 5.1108385,17.49326 L 4.8826867,17.201377 5.329264,16.839856 5.7758453,16.478335 5.7659797,15.595817 C 5.7574712,14.83275 5.7271608,14.677388 5.5413875,14.448019 L 5.326663,14.182741 5.7110375,13.903406 6.0954154,13.624073 6.0535922,12.670463 C 6.0260257,12.04192 5.9678149,11.674863 5.8828233,11.593671 5.7790866,11.494571 5.7887481,11.446809 5.9322321,11.34936 6.5568388,10.925159 6.5688918,10.898713 6.5310329,10.035494 6.5074432,9.4976243 6.4462812,9.1616905 6.350079,9.0415456 6.2169507,8.8752931 6.2363201,8.8442365 6.5809341,8.6714431 L 6.957109,8.4828219 6.9210863,7.6614683 C 6.8965395,7.101779 6.8364013,6.7767475 6.7323294,6.6412082 6.5856974,6.4502495 6.6122496,6.4242968 7.3969508,5.9916444 7.8991919,5.7147299 8.2735018,5.4356925 8.3678428,5.2678746 8.4522904,5.1176634 8.5821351,4.9154016 8.6563974,4.8184031 8.7318135,4.7198941 8.7979688,4.3528956 8.8062588,3.9870235 c 0.0092,-0.4060941 0.081758,-0.7764429 0.1909396,-0.9745317 0.096856,-0.1757319 0.1707983,-0.4442123 0.164315,-0.5966234 -0.0068,-0.1595458 0.031201,-0.2530815 0.089546,-0.2204717 0.055729,0.031153 0.1071032,0.1887522 0.1141849,0.3502228 0.00708,0.1614706 0.093363,0.4054128 0.1917461,0.5420929 0.1155759,0.1605813 0.1930147,0.469406 0.2188594,0.8728208 0.034297,0.5361928 0.078839,0.6598954 0.3152213,0.8764164 0.151381,0.1386581 0.276711,0.2858153 0.278518,0.3270157 0.0038,0.085745 0.762115,0.5350034 1.395225,0.8265507 0.430993,0.1984713 0.5176,0.3076103 0.340003,0.4284367 -0.05279,0.03591 -0.07871,0.4589726 -0.0576,0.9401365 l 0.03837,0.8748441 0.39617,0.1544255 c 0.39368,0.153456 0.395328,0.1562415 0.262432,0.4434209 -0.09272,0.200356 -0.114696,0.5216872 -0.07165,1.0476401 l 0.06207,0.7586462 0.429678,0.212675 c 0.408958,0.202426 0.422973,0.223199 0.29069,0.430864 -0.09803,0.153879 -0.127798,0.473195 -0.101035,1.083418 l 0.03795,0.865236 0.388824,0.256464 0.388826,0.256462 -0.166113,0.302688 c -0.12611,0.22979 -0.157318,0.506119 -0.129587,1.147393 0.03448,0.79471 0.05325,0.85898 0.318897,1.085826 0.155301,0.132615 0.385276,0.288486 0.511049,0.346379 l 0.228681,0.105255 -0.234016,0.336425 c -0.190259,0.27351 -0.229143,0.44767 -0.207932,0.93131 0.0431,0.982653 0.132086,1.198418 0.624466,1.514125 l 0.441936,0.283365 -0.187706,0.218226 c -0.162282,0.188662 -0.181728,0.354654 -0.14355,1.225152 l 0.04416,1.006924 0.445819,0.256055 0.445823,0.256055 -0.174396,0.248747 c -0.139481,0.198938 -0.167257,0.421584 -0.138738,1.11198 l 0.03566,0.863237 -5.609086,0.246002 -5.6090074,0.245999 z M 15.70575,24.29831 l -0.02379,-0.542548 -5.500559,0.215688 -5.5005592,0.215708 0.026031,0.593525 0.026031,0.593523 5.4983219,-0.266699 5.498324,-0.266679 z m 0.18447,-1.42775 c -8.67e-4,-0.01975 -0.175555,-0.145514 -0.3882,-0.279477 L 15.115395,22.347511 10.16169,22.56477 5.2079778,22.782029 4.826905,23.058963 c -0.2095892,0.152311 -0.3803581,0.293228 -0.3794845,0.313147 8.732e-4,0.01991 2.5762168,-0.0767 5.7229845,-0.214713 3.146759,-0.13801 5.720681,-0.267082 5.719815,-0.286823 z M 9.5539117,21.994543 c 0.045571,-0.50787 0.1892743,-0.696267 0.5428953,-0.711776 0.332647,-0.01459 0.494704,0.208721 0.516781,0.712097 l 0.01543,0.351741 2.219506,-0.09734 2.219505,-0.09734 -0.03249,-0.740747 -0.03249,-0.740748 -4.955774,0.242974 -4.9557726,0.242974 0.00239,0.716444 0.00239,0.716445 2.2108401,-0.09696 2.2108381,-0.09696 z M 15.261791,19.89494 c -0.004,-0.0406 -0.18881,-0.188155 -0.411036,-0.327893 l -0.404051,-0.254075 -4.436374,0.19457 -4.4363799,0.194569 -0.3802534,0.288474 c -0.2091429,0.158657 -0.3804815,0.321837 -0.3807553,0.362619 -4.928e-4,0.0408 2.3521766,-0.02904 5.2276726,-0.155153 2.87549,-0.126113 5.225019,-0.26251 5.221177,-0.303111 z M 9.4910356,18.863183 c -0.027183,-0.733914 0.3320659,-1.052127 0.7743844,-0.685776 0.132539,0.109785 0.193704,0.29554 0.208517,0.633278 l 0.02096,0.477936 1.972894,-0.08653 1.972894,-0.08653 -0.01919,-0.270954 c -0.01054,-0.149024 -0.05701,-0.447195 -0.103181,-0.662607 l -0.08396,-0.391656 -4.2910533,0.188196 c -2.7466139,0.120461 -4.315572,0.224836 -4.3591895,0.29002 -0.037482,0.05601 -0.057637,0.357098 -0.044783,0.669097 l 0.023418,0.567271 1.9728918,-0.08653 1.9728939,-0.08653 z m 4.7349684,-2.303881 -0.354333,-0.276946 -3.9899769,0.171088 -3.9899806,0.171088 -0.3638121,0.276485 c -0.2001006,0.152067 -0.3631075,0.292641 -0.3622413,0.31239 8.662e-4,0.01975 2.1195234,-0.05698 4.7081335,-0.170514 L 14.580351,16.836474 Z M 9.3519626,15.76378 c -0.01075,-0.24511 0.045008,-0.487606 0.1379178,-0.599777 0.1484348,-0.179214 0.1422043,-0.185184 -0.128961,-0.123611 -0.1567101,0.03559 -0.981088,0.06095 -1.831948,0.05636 l -1.5470167,-0.0083 -0.040302,0.435609 c -0.081327,0.878997 -0.2381255,0.81203 1.7020763,0.726937 l 1.7262827,-0.07571 z m 4.4114454,0.06245 c -0.03667,-0.08438 -0.07483,-0.338436 -0.08475,-0.564581 l -0.01803,-0.411172 -1.81325,0.07953 c -1.785123,0.07829 -1.811004,0.08233 -1.668426,0.268128 0.07966,0.103737 0.152175,0.356281 0.161163,0.561227 l 0.01634,0.37263 1.736838,-0.07617 c 1.543238,-0.06768 1.729397,-0.09327 1.670117,-0.229583 z m 0.09642,-1.912419 c 0.02768,-0.04953 -0.106715,-0.199297 -0.298673,-0.332822 l -0.349011,-0.242776 -3.464416,0.151942 -3.4644143,0.151941 -0.3219985,0.280881 c -0.1770966,0.154481 -0.298461,0.315469 -0.2697001,0.357748 0.072196,0.106122 8.1055029,-0.254735 8.1682149,-0.366848 z M 9.2334448,13.061461 c -0.018081,-0.412266 0.1450179,-0.642288 0.4653887,-0.656339 0.3203635,-0.01405 0.5029765,0.20081 0.5210575,0.613075 l 0.0111,0.253097 1.47967,-0.06489 1.479667,-0.06489 -0.02379,-0.542546 -0.02379,-0.542546 -1.702541,0.0536 -1.7025422,0.0536 1.6249692,-0.132196 c 1.166184,-0.09487 0.671344,-0.08814 -1.7526885,0.02382 l -3.3776581,0.156044 0.026294,0.61656 0.026293,0.616563 1.4796711,-0.06489 1.4796697,-0.06489 -0.0111,-0.253095 z m 4.0679692,-1.87681 c -0.0022,-0.04067 -0.183299,-0.166156 -0.402436,-0.278852 -0.388056,-0.199566 -0.473152,-0.201628 -3.2663658,-0.07912 L 6.7646824,10.952457 6.3836092,11.22939 c -0.2095887,0.152312 -0.3803585,0.29323 -0.379485,0.313146 8.737e-4,0.01992 1.6440253,-0.03582 3.6514459,-0.12386 2.0074179,-0.08804 3.6480469,-0.193357 3.6458439,-0.23403 z M 9.2269818,10.22675 c 0.010822,-0.381795 0.038117,-0.4247242 0.2957474,-0.4656398 0.3324116,-0.052795 0.4555485,0.08411 0.4772354,0.5305728 l 0.015559,0.320529 1.233056,-0.05408 1.233059,-0.05408 -0.0251,-0.5671961 -0.02507,-0.5671988 -2.8605653,0.1254581 -2.8605643,0.1254581 0.024924,0.5672057 0.024929,0.567203 1.2273867,-0.05383 1.227387,-0.05383 0.011954,-0.42057 z M 12.3974,8.5830168 C 12.396271,8.5572915 12.261411,8.4742467 12.097711,8.3984906 11.85578,8.2865358 11.369902,8.2797443 9.5017171,8.3622073 7.3741164,8.4561168 7.1820117,8.4791891 6.9160203,8.6726292 L 6.6286814,8.8815968 9.5140655,8.7556858 C 11.101028,8.6864415 12.398527,8.60873 12.397399,8.5829948 Z M 9.1039406,7.8551797 C 9.0880987,7.4939684 9.2261899,7.2864613 9.4901212,7.2748859 9.6982951,7.2657558 9.8809584,7.5437433 9.8962761,7.8929998 l 0.0111,0.2530967 0.9864447,-0.043263 0.986451,-0.043263 -0.02271,-0.5178854 -0.02271,-0.5178851 -2.3419146,0.1233121 -2.3419119,0.1233109 -0.00801,0.498637 -0.00801,0.4986368 0.9916033,-0.04349 0.9916012,-0.043489 z M 11.800807,6.2476886 C 11.799932,6.2277368 11.457583,6.031493 11.040031,5.8115912 10.622484,5.5916887 10.252423,5.335154 10.217673,5.2415135 10.130677,5.0070629 9.5304769,4.6045858 9.2839719,4.6153969 9.1707088,4.6203644 8.9527263,4.7931697 8.7890673,5.0077318 8.2923575,5.6589339 8.2219706,5.7222876 7.5611074,6.1129556 L 6.9192332,6.4923977 9.3608153,6.388178 C 10.703683,6.3308443 11.801682,6.267636 11.800806,6.2476832 Z M 9.5822747,4.0834334 C 9.5318906,3.8546175 9.4761781,3.5538345 9.4584491,3.4150273 9.4042034,2.9902114 9.2814768,2.8914846 9.1209271,3.1435282 9.0111577,3.3158409 9.0076435,3.3810975 9.1052004,3.4356257 c 0.09506,0.053136 0.098168,0.088876 0.01285,0.1469295 -0.062021,0.042193 -0.083802,0.1432958 -0.048402,0.2246729 0.0354,0.081378 0.016842,0.2105526 -0.041152,0.2870526 -0.172509,0.2274452 -0.00806,0.4338399 0.333753,0.4188488 l 0.3116381,-0.013668 z"
       id="path1000" />
  </g>
</svg>
